# xmcd CD database file
#
# Track frame offsets:
#	150
#	14780
#	27156
#	39784
#	52019
#	63997
#	78309
#	92674
#	105563
#	118781
#	131402
#	146518
#	160583
#	173524
#	186487
#	200724
#	212669
#	227069
#	240460
#
# Disc length: 3370 seconds
#
# Revision: 0
# Processed by: cddbd v1.5.2PL0 Copyright (c) Steve Scherf et al.
# Submitted via: CDex 1.70beta2
#
DISCID=fd0d2813
DTITLE=Johnny Dodds - Giants of Jazz [CD2]
DYEAR=1900
DGENRE=Jazz
TTITLE0=After You’ve Gone: Johnny Dodds’ Black Bottom Stompers
TTITLE1=Joe Turner Blues: Johnny Dodds’ Black Bottom Stompers
TTITLE2=When Erastus Plays His Old Kazoo: Johnny Dodds’ Black Bottom Stompers 
TTITLE3=Oriental Man: Dixie‑Land Thumpers
TTITLE4=Hot Potatoes: Blind Blake 
TTITLE5=Blue Clarinet Stomp: Johnny Dodds Trio 
TTITLE6=Bucktown Stomp: Johnny Dodds’ Washboard Band
TTITLE7=Weary City: Johnny Dodds’ Washboard Band 
TTITLE8=Bull Fiddle Blues: Johnny Dodds’ Washboard Band
TTITLE9=Blue Washboard Stomp: Johnny Dodds’ Washboard Band
TTITLE10=Goober Dance: Johnny Dodds Hot Six
TTITLE11=Indigo Stomp: Johnny Dodds Trio
TTITLE12=Forty and Tight: Beale Street Washboard Band
TTITLE13=Piggly Wiggly: Beale Street Washboard Band 
TTITLE14=Wild Man Blues: Johnny Dodds and His Chicago Boys
TTITLE15=Melancholy: Johnny Dodds and His Chicago Boys
TTITLE16=29th and Dearborn: Johnny Dodds and His Chicago Boys
TTITLE17=Red Onion Blues: Johnny Dodds and His Orchestra
TTITLE18=Gravier Street Blues: Johnny Dodds and His Orchestra 
EXTD=
EXTT0=
EXTT1=
EXTT2=
EXTT3=
EXTT4=
EXTT5=
EXTT6=
EXTT7=
EXTT8=
EXTT9=
EXTT10=
EXTT11=
EXTT12=
EXTT13=
EXTT14=
EXTT15=
EXTT16=
EXTT17=
EXTT18=
PLAYORDER=
